# xmcd
#
# Track frame offsets:
#	258
#	24285
#	43190
#	59785
#	80630
#	105535
#	126780
#	148053
#	171268
#	188803
#	207428
#	214435
#	239355
#	268368
#
# Disc length: 9601 seconds
#
# Revision: 0
# Processed by: cddbd v1.4PL0 Copyright (c) Steve Scherf et al.
# Submitted via: EasyCDDAExtractor 4.6.0.1
#
DISCID=e0257e0e
DTITLE=Tony Joe White - Lake Placid Blues
DYEAR=1995
DGENRE=Blues
TTITLE0=Lake Placid Blues
TTITLE1=Menutha
TTITLE2=Paris Mood Night
TTITLE3=Bayou Women
TTITLE4=The Guitar Don`t Lie
TTITLE5=Let The Healing Begin
TTITLE6=Louisiana Rain
TTITLE7=The Beach Life
TTITLE8=High Horse
TTITLE9=These Arms Of Mine
TTITLE10=Wampus Kitty
TTITLE11=Yo Yo Man/Garter Belt
TTITLE12=Down Again
TTITLE13=I`ll Make Love Good For You
EXTD=
EXTT0=
EXTT1=
EXTT2=
EXTT3=
EXTT4=
EXTT5=
EXTT6=
EXTT7=
EXTT8=
EXTT9=
EXTT10=
EXTT11=
EXTT12=
EXTT13=
PLAYORDER=
